# xmcd
#
# Track frame offsets: 
#        150
#        32406
#        66377
#        96473
#        131869
#        172164
#        193990
#        226595
#        248098
#        277565
#        301026
#        323214
#
# Disc length: 4689 seconds
#
# Revision: 0
# Processed by: cddbd v1.5.2PL0 Copyright (c) Steve Scherf et al.
# Submitted via: ExactAudioCopy v0.99pb3
#
DISCID=a2124f0c
DTITLE=Various Artist - Old School Hip-Hop Volume 1 [CD1)
DYEAR=2007
DGENRE=Hip-Hop
TTITLE0=Grandmaster Flash - The Adventures Of Grandmaster Flash On The
TTITLE0=Wheels Of Steel
TTITLE1=The sugarhill Gang - 8th Wonder
TTITLE2=Doug E Fresh and The Get Fresh Crew - The Show
TTITLE3=Grandmaster Flash and The Furious five - It's Nasty (Genius of
TTITLE3=Love)
TTITLE4=T Ski Valley - Catch The Beat
TTITLE5=Spoonie Gee - The Godfather
TTITLE6=Grandmaster Flash - The Message
TTITLE7=Whodini - Freaks Come Out At Night
TTITLE8=Davy D - One For The Treble
TTITLE9=West Street Mob - Break Dance (Electric Boogie)
TTITLE10=Grandmaster Flash and The Furious Five - Scorpio
TTITLE11=Run-D.M.C. - It's Like That
EXTD=
EXTT0=
EXTT1=
EXTT2=
EXTT3=
EXTT4=
EXTT5=
EXTT6=
EXTT7=
EXTT8=
EXTT9=
EXTT10=
EXTT11=
PLAYORDER=
